<svg height="512pt" viewBox="0 0 512 512" width="512pt" xmlns="http://www.w3.org/2000/svg" xmlns:xlink="http://www.w3.org/1999/xlink"><linearGradient id="a" gradientUnits="userSpaceOnUse" x1="0" x2="512" y1="256" y2="256"><stop offset="0" stop-color="#80d8ff"/><stop offset="1" stop-color="#ea80fc"/></linearGradient><path d="m414 314c-31.980469 0-58-26.019531-58-58 0-55.140625-44.859375-100-100-100s-100 44.859375-100 100 44.859375 100 100 100c32.828125 0 62.011719-15.902344 80.257812-40.410156 17.929688 23.335937 46.105469 38.410156 77.742188 38.410156 54.035156 0 98-43.964844 98-98 0-141.484375-114.496094-256-256-256-141.484375 0-256 114.496094-256 256 0 68.378906 26.628906 132.667969 74.980469 181.019531 48.351562 48.351563 112.640625 74.980469 181.019531 74.980469s132.667969-26.628906 181.019531-74.980469c7.8125-7.8125 7.8125-20.472656 0-28.285156-7.808593-7.808594-20.472656-7.808594-28.285156 0-40.796875 40.796875-95.039063 63.265625-152.734375 63.265625-119.101562 0-216-96.898438-216-216s96.898438-216 216-216 216 96.898438 216 216c0 31.980469-26.019531 58-58 58zm-158 2c-33.085938 0-60-26.914062-60-60s26.914062-60 60-60 60 26.914062 60 60-26.914062 60-60 60zm0 0" fill="url(#a)"/></svg>