<svg id="Capa_1" enable-background="new 0 0 511.954 511.954" height="512" viewBox="0 0 511.954 511.954" width="512" xmlns="http://www.w3.org/2000/svg" xmlns:xlink="http://www.w3.org/1999/xlink"><linearGradient id="SVGID_1_" gradientUnits="userSpaceOnUse" x1="137.773" x2="437.307" y1="374.182" y2="74.649"><stop offset="0" stop-color="#a93aff"/><stop offset="1" stop-color="#ff81ff"/></linearGradient><g><g><path d="m361.512 343.361c-17.544-17.544-46.094-17.546-63.64 0l-21.213 21.214c-5.957 5.956-15.465 5.748-21.165.049l-108.114-108.115c-5.863-5.864-5.863-15.35 0-21.213l21.214-21.213c17.545-17.546 17.545-46.094 0-63.639l-53.034-53.034c-17.544-17.546-46.094-17.546-63.639 0l-21.213 21.213c-40.939 40.939-40.939 107.553-.025 148.468l214.157 214.157c40.938 40.938 107.552 40.941 148.492 0l21.213-21.213c17.546-17.545 17.546-46.094 0-63.639zm31.82 95.46-21.213 21.213c-29.244 29.242-76.825 29.241-106.042.025l-214.156-214.156c-29.242-29.243-29.242-76.824 0-106.066l21.213-21.213c5.848-5.848 15.365-5.849 21.213 0l53.033 53.033c5.848 5.849 5.848 15.365 0 21.213l-21.213 21.213c-17.66 17.66-17.498 46.142-.049 63.59l108.115 108.115c17.586 17.586 46.052 17.589 63.64 0l21.213-21.213c5.85-5.849 15.366-5.849 21.214 0l53.032 53.033c5.848 5.849 5.848 15.365 0 21.213zm-136.378-438.819c-8.284 0-15 6.716-15 15s6.716 15 15 15c124.065 0 225 100.935 225 225 0 8.284 6.716 15 15 15s15-6.716 15-15c0-140.931-114.049-255-255-255zm0 120c74.439 0 135 60.561 135 135 0 8.284 6.716 15 15 15s15-6.716 15-15c0-90.981-74.019-165-165-165-8.284 0-15 6.716-15 15s6.716 15 15 15zm0 90c24.813 0 45 20.187 45 45 0 8.284 6.716 15 15 15s15-6.716 15-15c0-41.355-33.645-75-75-75-8.284 0-15 6.716-15 15s6.716 15 15 15z" fill="url(#SVGID_1_)"/></g></g></svg>